<svg xmlns="http://www.w3.org/2000/svg" width="79.849" height="79.349" viewBox="0 0 79.849 79.349">
  <g id="link-line" transform="translate(-6.353 -6.085)">
    <path id="Tracé_13" data-name="Tracé 13" d="M43.8,49.843l-8.191,8.125a13.319,13.319,0,0,1-18.714,0,13.053,13.053,0,0,1,0-18.481L32.516,24a13.319,13.319,0,0,1,18.714,0,12.853,12.853,0,0,1,3.33,5.694,6.659,6.659,0,0,0,.9-.9l4.3-4.262a19.613,19.613,0,0,0-3.829-5.394,19.979,19.979,0,0,0-28.1,0L12.17,34.759a19.679,19.679,0,0,0,0,27.937,19.979,19.979,0,0,0,28.1,0L52.428,50.642H50.763a26.638,26.638,0,0,1-6.959-.8Z" transform="translate(0 16.961)" fill="#29f3c3"/>
    <path id="Tracé_14" data-name="Tracé 14" d="M61.927,11.862a19.979,19.979,0,0,0-28.1,0L21.669,23.916H23.3a26.639,26.639,0,0,1,6.993.932l8.191-8.125a13.319,13.319,0,0,1,18.714,0,13.053,13.053,0,0,1,0,18.481L41.581,50.688a13.319,13.319,0,0,1-18.714,0,12.853,12.853,0,0,1-3.33-5.694,6.66,6.66,0,0,0-.932.766l-4.3,4.262a19.613,19.613,0,0,0,3.829,5.394,19.979,19.979,0,0,0,28.1,0L61.86,39.932A19.713,19.713,0,0,0,61.86,12Z" transform="translate(18.539 0)" fill="#29f3c3"/>
  </g>
</svg>
