<svg id="Groupe_2" data-name="Groupe 2" xmlns="http://www.w3.org/2000/svg" width="40" height="40" viewBox="0 0 40 40">
  <rect id="Rectangle_39" data-name="Rectangle 39" width="40" height="40" rx="20" fill="#f53"/>
  <path id="Tracé_5" data-name="Tracé 5" d="M14.659,15.091q.211-.975.418-1.952a.838.838,0,0,0-.812-.976l-1.38.021c-.3-.007-.328-.081-.414-.164a.6.6,0,0,1,.4-1L14.251,11h.055a2.034,2.034,0,0,1,1.905,2.4l-.433,1.98a6.049,6.049,0,0,1,2.958,2.428c.341-1.555.694-3.106,1.022-4.664a.838.838,0,0,0-.812-.976l-1.381.021c-.558-.014-.858-1.024-.108-1.154a.592.592,0,0,1,.091-.008L18.933,11h.055a2.035,2.035,0,0,1,1.91,2.371c-.422,2.007-.889,4-1.312,6.012a.838.838,0,0,0,.8.976H20.4a5.806,5.806,0,0,1,6.926-5.221l.111.023a5.979,5.979,0,0,1,4.545,5.145c.232,2.506-1.3,4.894-3.022,6.772a22.975,22.975,0,0,1-2.463,2.235,1.079,1.079,0,0,1-1.731-.983c.085-.747.169-1.44.2-1.7a.116.116,0,0,0-.09-.128A5.976,5.976,0,0,1,20.448,21.8c-.015-.092-.028-.185-.039-.277h-.03a1.866,1.866,0,0,1-.774-.179,10.484,10.484,0,0,1-3.02,5.735,22.851,22.851,0,0,1-2.462,2.235,1.079,1.079,0,0,1-1.731-.983c.085-.747.169-1.44.2-1.7a.117.117,0,0,0-.091-.128A5.973,5.973,0,0,1,8.076,21.8a5.816,5.816,0,0,1,6.583-6.711Zm-.249,1.141a4.649,4.649,0,0,0-4.559,7.049,4.749,4.749,0,0,0,2.995,2.113c.206.047.383.08.533.1a.579.579,0,0,1,.506.673c-.1.6-.25,1.478-.33,1.942a.118.118,0,0,0,.057.121.116.116,0,0,0,.133-.012,16.746,16.746,0,0,0,3.647-4.1,5.778,5.778,0,0,0,.876-4.619,4.728,4.728,0,0,0-2.739-2.979l-.993,4.551c-.141.541-1.193.6-1.149-.158a.6.6,0,0,1,.013-.09C13.733,19.294,14.074,17.764,14.41,16.232ZM21.6,21.526a4.6,4.6,0,0,0,.628,1.755,4.746,4.746,0,0,0,2.995,2.113c.2.047.383.08.531.1a.578.578,0,0,1,.507.673c-.1.6-.251,1.478-.33,1.942a.116.116,0,0,0,.19.109,16.793,16.793,0,0,0,3.647-4.1,5.782,5.782,0,0,0,.876-4.619,4.722,4.722,0,0,0-3.4-3.188l-.117-.026A4.773,4.773,0,0,0,22.1,18.616a4.6,4.6,0,0,0-.53,1.747l4.237.005a.606.606,0,0,1,.573.673.6.6,0,0,1-.484.483.555.555,0,0,1-.091.007Z" fill="#fff" fill-rule="evenodd"/>
</svg>
