<svg xmlns="http://www.w3.org/2000/svg" width="170" height="170" viewBox="0 0 170 170">
  <circle id="Ellipse_33" data-name="Ellipse 33" cx="85" cy="85" r="85" fill="#403f82"/>
  <g id="Logo" transform="translate(7.067 7.036)">
    <g id="big-circle" transform="translate(-0.067 -0.036)">
      <path id="Tracé_6" data-name="Tracé 6" d="M168.27,243.221a78.254,78.254,0,1,1,55.329-22.94A78.254,78.254,0,0,1,168.27,243.221Zm0-151.721a73.457,73.457,0,1,0,51.986,21.476A73.271,73.271,0,0,0,168.27,91.5Z" transform="translate(-89.983 -86.704)" fill="#fff"/>
    </g>
    <g id="medium-circle" transform="translate(24.088 41.252)">
      <path id="Tracé_7" data-name="Tracé 7" d="M197.163,286.583A57.74,57.74,0,0,1,154.768,189.7q.893-.976,1.816-1.884a2.373,2.373,0,0,1,3.343,3.368c-.561.561-1.123,1.137-1.664,1.728a52.991,52.991,0,1,0,43.561-16.878,2.377,2.377,0,0,1-2.162-2.567,2.4,2.4,0,0,1,2.572-2.162,57.74,57.74,0,0,1-2.67,115.212C198.759,286.569,197.958,286.583,197.163,286.583Z" transform="translate(-139.472 -171.296)" fill="#fff"/>
    </g>
    <g id="small-circle" transform="translate(56.098 37.582)">
      <path id="Tracé_8" data-name="Tracé 8" d="M214.067,181.77a9,9,0,1,1,6.345-2.636A9,9,0,0,1,214.067,181.77Zm0-13.237a4.246,4.246,0,0,0-3,7.248,4.354,4.354,0,0,0,6,0,4.246,4.246,0,0,0-3-7.248Z" transform="translate(-205.054 -163.778)" fill="#fff"/>
    </g>
  </g>
</svg>
